# xmcd CD database file
#
# Track frame offsets:
#	150
#	14644
#	30530
#	47147
#	61609
#	77404
#	94974
#	114042
#	128729
#	145906
#	156879
#	170739
#	183145
#	198615
#	212161
#
# Disc length: 3039 seconds
#
# Revision: 0
# Processed by: cddbd v1.5.2PL0 Copyright (c) Steve Scherf et al.
# Submitted via: CDex 1.50Beta7
#
DISCID=c60bdd0f
DTITLE=The Bosshoss - Stallion Battalion
DYEAR=2008
DGENRE=Country
TTITLE0=Stallion Battalion
TTITLE1=Monkey Business
TTITLE2=Shake and Shout
TTITLE3=Jose and Myling
TTITLE4=Free Love on Free Love Free Way
TTITLE5=Polk Salad Annie
TTITLE6=Omniscient Lover
TTITLE7=Everything Counts
TTITLE8=Goodbye Mary
TTITLE9=Gay Bar
TTITLE10=Truck'n'Roll Rules
TTITLE11=High
TTITLE12=Drop It Like It's Hot
TTITLE13=Jumpin' Around
TTITLE14=Ca Plane Pour Moi
EXTD=YEAR: 2008
EXTT0=
EXTT1=
EXTT2=
EXTT3=
EXTT4=
EXTT5=
EXTT6=
EXTT7=
EXTT8=
EXTT9=
EXTT10=
EXTT11=
EXTT12=
EXTT13=
EXTT14=
PLAYORDER=
